<svg xmlns="http://www.w3.org/2000/svg" viewBox="0 0 99.61 92.27">
  <path fill="#3A1D1D" d="M49.8,0C22.3,0,0,17.9,0,39.9c0,14.1,9.4,26.4,23.4,33.3-.8,2.7-2.8,9.9-3.2,11.4-.5,1.8,0.7,1.8,1.4,1.3,0.6-0.4,9.2-6.2,13-9.2,4.9,0.7,10,1.1,15.2,1.1c27.5,0,49.8-17.9,49.8-39.9C99.6,17.9,77.3,0,49.8,0"/>
  <path fill="#FFE812" d="M49.8,5.4c-24,0-43.5,15.5-43.5,34.5S25.8,74.4,49.8,74.4c4.5,0,8.8-0.4,12.8-1c3.3,2.7,10.4,7.5,10.9,7.8,0.6,0.4,1.6,0.4,1.2-1.1c-0.4-1.2-2-7.5-2.7-9.8C85.5,63.5,93.3,52.5,93.3,39.9,93.3,20.9,73.9,5.4,49.8,5.4"/>
</svg>